<svg xmlns="http://www.w3.org/2000/svg" viewBox="0 0 107.37 44.3"><defs><style>.cls-1,.cls-2{fill:#fff;}.cls-2{fill-rule:evenodd;}</style></defs><title>Asset 3</title><g id="Layer_2" data-name="Layer 2"><g id="Layer_2-2" data-name="Layer 2"><path class="cls-1" d="M16.35,37.92H6.13A2.48,2.48,0,0,0,7.21,39.2a3.65,3.65,0,0,0,1.88.44,4.73,4.73,0,0,0,1.63-.24,5.7,5.7,0,0,0,1.44-.83l3.17,3.2q-2.15,2.37-6.43,2.37a10.56,10.56,0,0,1-4.68-1A7.42,7.42,0,0,1,1.1,40.42a7.61,7.61,0,0,1,0-7.87,7.46,7.46,0,0,1,3-2.7,9.24,9.24,0,0,1,4.26-1,9.26,9.26,0,0,1,4.07.89,7,7,0,0,1,2.93,2.61,7.55,7.55,0,0,1,1.09,4.12Q16.43,36.63,16.35,37.92ZM6.83,33.54A2.42,2.42,0,0,0,6,35h4.73a2.47,2.47,0,0,0-.81-1.44A2.33,2.33,0,0,0,8.39,33,2.37,2.37,0,0,0,6.83,33.54Z"/><path class="cls-1" d="M22.61,43a9.34,9.34,0,0,1-3.75-3.5,10.25,10.25,0,0,1,0-10.2,9.34,9.34,0,0,1,3.75-3.5A11.43,11.43,0,0,1,28,24.6a11.79,11.79,0,0,1,4.89,1,9.09,9.09,0,0,1,3.55,2.8l-4,3.58a5.14,5.14,0,0,0-4.11-2.21A4.2,4.2,0,0,0,25.12,31a4.79,4.79,0,0,0-1.21,3.43,4.79,4.79,0,0,0,1.21,3.43,4.2,4.2,0,0,0,3.2,1.28A5.14,5.14,0,0,0,32.43,37l4,3.58a9.09,9.09,0,0,1-3.55,2.8,11.81,11.81,0,0,1-4.89,1A11.43,11.43,0,0,1,22.61,43Z"/><path class="cls-1" d="M41.32,43.16a7.55,7.55,0,0,1-3.05-2.72,7.6,7.6,0,0,1,0-7.88,7.47,7.47,0,0,1,3.05-2.7,10.53,10.53,0,0,1,8.82,0,7.38,7.38,0,0,1,3,2.7,7.68,7.68,0,0,1,0,7.88,7.45,7.45,0,0,1-3,2.72,10.39,10.39,0,0,1-8.82,0Zm6.12-4.52a3.14,3.14,0,0,0,.67-2.14,3.09,3.09,0,0,0-.67-2.13,2.34,2.34,0,0,0-3.44,0,3.09,3.09,0,0,0-.67,2.13A3.14,3.14,0,0,0,44,38.63a2.31,2.31,0,0,0,3.44,0Z"/><path class="cls-1" d="M79.72,30.52a6.84,6.84,0,0,1,1.6,5v8.39H75.24V36.52Q75.24,34,73.6,34a1.7,1.7,0,0,0-1.38.65,3.23,3.23,0,0,0-.52,2v7.18H65.61V36.52Q65.61,34,64,34a1.7,1.7,0,0,0-1.39.65,3.24,3.24,0,0,0-.52,2v7.18H56V29.15h5.78v1.37a5.64,5.64,0,0,1,4.17-1.64,6.23,6.23,0,0,1,2.66.55,4.67,4.67,0,0,1,1.94,1.68,6,6,0,0,1,2.15-1.65,6.57,6.57,0,0,1,2.77-.58A5.68,5.68,0,0,1,79.72,30.52Z"/><path class="cls-1" d="M84.21,27.09a2.95,2.95,0,0,1,0-4.44,3.9,3.9,0,0,1,2.65-.87,4,4,0,0,1,2.66.83,2.68,2.68,0,0,1,1,2.15,3,3,0,0,1-1,2.3,3.82,3.82,0,0,1-2.66.9A3.9,3.9,0,0,1,84.21,27.09Zm-.39,2.06h6.08V43.87H83.82Z"/><path class="cls-1" d="M105.33,30.62q2,1.73,2,5.34v7.91h-5.65V41.93q-1,2.21-4.17,2.21a6.65,6.65,0,0,1-3-.61,4.26,4.26,0,0,1-2.49-4,3.74,3.74,0,0,1,1.67-3.31,9.09,9.09,0,0,1,5.06-1.13h2.45Q101,33.4,98.5,33.4a6.94,6.94,0,0,0-2,.31,5.66,5.66,0,0,0-1.75.85l-1.94-4a10.67,10.67,0,0,1,3.05-1.22,14.75,14.75,0,0,1,3.56-.44A8.9,8.9,0,0,1,105.33,30.62Zm-4.79,9.51a2,2,0,0,0,.75-1v-1H99.79q-1.85,0-1.86,1.24a1.07,1.07,0,0,0,.39.85,1.57,1.57,0,0,0,1.06.34A2,2,0,0,0,100.54,40.13Z"/><path class="cls-2" d="M38.74,28.37,37,25.24a3.4,3.4,0,0,1,1.31-4.62l28-15.7L79.36,8.59A3.39,3.39,0,0,1,81.83,12a5.76,5.76,0,0,1-1.73.21,1.72,1.72,0,0,0-1.21-2L66.65,6.78,39.12,22.12a1.68,1.68,0,0,0-.65,2.29l2.24,4Zm31.17,0,6.71-3.8,2.07-7.36.61,0q.58,0,1.13,0L78,25.85l-4.5,2.52ZM70,20.05a4.24,4.24,0,0,1,2.3-8.17,4.31,4.31,0,0,1,.75.29c-2.35.36-3.61,1.28-4.32,3a0,0,0,0,0,0,0l0,.1a2.55,2.55,0,0,0,4.62,2h0a7,7,0,0,1,1.9-.22v0A4.24,4.24,0,0,1,70,20.05Zm1.74-3-1.63-.46c.75-2.65,2.47-3.24,9.5-2.69,5.94.47,8.31-5.05,5.43-8.23-2.29-2.53-7.74-2.14-8.45.4l-1.63-.46c1.12-4,8.25-4.5,11.35-1.08,3.86,4.27.7,11.65-6.83,11.06-6.31-.5-7.28-.17-7.74,1.45Z"/><path class="cls-2" d="M2.28,27.51C9.54-5.57,42.58-4,58,7.38L54.55,9.33l0,0C32.6-1.84,11.52,6.16,2.28,27.51Z"/><path class="cls-2" d="M17.12,13.67C29,5.45,41,7.27,50.35,11.69l-3,1.66h0c-10.56-3.82-21.73-3.41-30.28.32Z"/><path class="cls-2" d="M40.52,17.2h0c-8.69-4.33-15.13-4.45-20.71-3a39.84,39.84,0,0,1,25.73.15l-5,2.82Z"/></g></g></svg>